<svg width="132" height="48" viewBox="0 0 132 48" fill="none"
    xmlns="http://www.w3.org/2000/svg">
    <g clip-path="url(#clip0_286_5857)">
        <path d="M22.696 34.04C21.496 34.04 20.338 33.944 19.222 33.752C18.106 33.56 17.032 33.26 16 32.852V28.712C16.96 29.144 18.039 29.522 19.24 29.846C20.44 30.17 21.736 30.332 23.128 30.332C24.304 30.332 25.18 30.164 25.756 29.828C26.332 29.492 26.62 28.988 26.62 28.316C26.62 27.836 26.464 27.452 26.152 27.164C25.84 26.876 25.348 26.582 24.676 26.282C24.004 25.982 23.116 25.616 22.012 25.184C20.86 24.704 19.852 24.224 18.988 23.744C18.124 23.264 17.446 22.682 16.954 21.998C16.462 21.314 16.216 20.42 16.216 19.316C16.216 18.044 16.54 17 17.188 16.184C17.836 15.368 18.748 14.768 19.924 14.384C21.1 14 22.468 13.808 24.028 13.808C25.228 13.808 26.41 13.922 27.574 14.15C28.738 14.378 29.896 14.732 31.048 15.212L29.68 18.668C28.624 18.26 27.634 17.96 26.71 17.768C25.786 17.576 24.856 17.48 23.92 17.48C22.864 17.48 22.066 17.612 21.526 17.876C20.986 18.14 20.716 18.572 20.716 19.172C20.716 19.652 20.878 20.048 21.202 20.36C21.526 20.672 22.018 20.96 22.678 21.224C23.338 21.488 24.172 21.812 25.18 22.196C26.332 22.652 27.358 23.114 28.258 23.582C29.158 24.05 29.872 24.644 30.4 25.364C30.928 26.084 31.192 27.068 31.192 28.316C31.192 29.564 30.868 30.68 30.22 31.52C29.572 32.361 28.618 32.99 27.358 33.41C26.098 33.83 24.544 34.04 22.696 34.04Z" fill="#1C1B1F"/>
        <path d="M56.7422 33.68V30.836L62.1422 29.972V17.876L57.5702 17.3V14.168H65.5982L66.2102 17.552H66.4262C67.0742 16.376 67.8482 15.458 68.7482 14.798C69.6482 14.138 70.8062 13.808 72.2222 13.808C72.7742 13.808 73.3612 13.857 73.9862 13.952C74.6102 14.048 75.2222 14.228 75.8222 14.492L74.6342 18.596C74.2742 18.428 73.8362 18.284 73.3202 18.164C72.8042 18.044 72.2582 17.984 71.6822 17.984C70.6022 17.984 69.6842 18.26 68.9282 18.812C68.1722 19.364 67.5962 20.108 67.2002 21.044C66.8042 21.98 66.6062 23.012 66.6062 24.14V29.972L71.9342 30.836V33.68H56.7422Z" fill="#1C1B1F"/>
        <path d="M88.0745 34.04C85.8425 34.04 83.9465 33.65 82.3865 32.87C80.8265 32.09 79.6325 30.944 78.8045 29.432C77.9765 27.92 77.5625 26.072 77.5625 23.888C77.5625 21.824 77.9285 20.036 78.6605 18.524C79.3925 17.012 80.4545 15.848 81.8465 15.032C83.2385 14.216 84.8825 13.808 86.7785 13.808C88.6745 13.808 90.1085 14.174 91.3685 14.906C92.6285 15.638 93.5945 16.683 94.2665 18.038C94.9375 19.394 95.2745 21.02 95.2745 22.916V25.076H81.9545C82.0025 26.324 82.3015 27.338 82.8545 28.118C83.4065 28.898 84.1625 29.468 85.1225 29.828C86.0825 30.188 87.1505 30.368 88.3265 30.368C89.3105 30.368 90.3185 30.242 91.3505 29.99C92.3825 29.738 93.4615 29.384 94.5905 28.928V32.636C93.5105 33.164 92.4185 33.53 91.3145 33.734C90.2105 33.938 89.1305 34.04 88.0745 34.04ZM91.1345 21.908C91.1345 20.924 90.9485 20.09 90.5765 19.406C90.2045 18.722 89.7065 18.195 89.0825 17.822C88.4585 17.45 87.7145 17.264 86.8505 17.264C85.5545 17.264 84.4745 17.672 83.6105 18.488C82.7465 19.304 82.2305 20.444 82.0625 21.908H91.1345Z" fill="#1C1B1F"/>
        <path d="M99.1719 33.68V14.168H102.628L103.348 16.796H103.6C103.983 16.124 104.476 15.566 105.076 15.122C105.675 14.678 106.359 14.348 107.128 14.132C107.896 13.916 108.748 13.808 109.684 13.808C111.772 13.808 113.404 14.397 114.58 15.572C115.756 16.748 116.344 18.5 116.344 20.828V33.68H111.844V21.872C111.844 20.36 111.544 19.25 110.944 18.542C110.344 17.834 109.432 17.48 108.208 17.48C106.576 17.48 105.412 18.074 104.716 19.262C104.02 20.45 103.672 22.088 103.672 24.176V33.68H99.1719Z" fill="#1C1B1F"/>
        <path d="M50.4931 15.715L52.2921 11H48.6921L38.8281 36.848H42.4281L43.4861 34.075C43.8031 34.105 44.1231 34.124 44.4471 34.124C50.0801 34.124 54.6471 29.557 54.6471 23.924C54.6471 20.555 53.0101 17.572 50.4921 15.715H50.4931ZM44.8471 30.511L49.1321 19.283C50.3151 20.476 51.0481 22.115 51.0481 23.924C51.0481 27.429 48.3011 30.304 44.8471 30.511Z" fill="#1C1B1F"/>
        <path d="M43.8875 13.724C38.2545 13.724 33.6875 18.291 33.6875 23.924C33.6875 27.007 35.0575 29.767 37.2195 31.637L44.0525 13.73C43.9975 13.73 43.9425 13.724 43.8875 13.724Z" fill="#1C1B1F"/>
    </g>
    <defs>
        <clipPath id="clip0_286_5857">
            <rect width="100.346" height="25.848" fill="white" transform="translate(16 11)"/>
        </clipPath>
    </defs>
</svg>
