<svg width="132" height="48" viewBox="0 0 132 48" fill="none"
    xmlns="http://www.w3.org/2000/svg">
    <g clip-path="url(#clip0_211_112)">
        <path d="M22.696 34.3599C21.496 34.3599 20.338 34.2639 19.222 34.0719C18.106 33.8799 17.032 33.5799 16 33.1719V29.0319C16.96 29.4639 18.039 29.8419 19.24 30.1659C20.44 30.4899 21.736 30.6519 23.128 30.6519C24.304 30.6519 25.18 30.4839 25.756 30.1479C26.332 29.8119 26.62 29.3079 26.62 28.6359C26.62 28.1559 26.464 27.7719 26.152 27.4839C25.84 27.1959 25.348 26.9019 24.676 26.6019C24.004 26.3019 23.116 25.9359 22.012 25.5039C20.86 25.0239 19.852 24.5439 18.988 24.0639C18.124 23.5839 17.446 23.0019 16.954 22.3179C16.462 21.6339 16.216 20.7399 16.216 19.6359C16.216 18.3639 16.54 17.3199 17.188 16.5039C17.836 15.6879 18.748 15.0879 19.924 14.7039C21.1 14.3199 22.468 14.1279 24.028 14.1279C25.228 14.1279 26.41 14.2419 27.574 14.4699C28.738 14.6979 29.896 15.0519 31.048 15.5319L29.68 18.9879C28.624 18.5799 27.634 18.2799 26.71 18.0879C25.786 17.8959 24.856 17.7999 23.92 17.7999C22.864 17.7999 22.066 17.9319 21.526 18.1959C20.986 18.4599 20.716 18.8919 20.716 19.4919C20.716 19.9719 20.878 20.3679 21.202 20.6799C21.526 20.9919 22.018 21.2799 22.678 21.5439C23.338 21.8079 24.172 22.1319 25.18 22.5159C26.332 22.9719 27.358 23.4339 28.258 23.9019C29.158 24.3699 29.872 24.9639 30.4 25.6839C30.928 26.4039 31.192 27.3879 31.192 28.6359C31.192 29.8839 30.868 30.9999 30.22 31.8399C29.572 32.6809 28.618 33.3099 27.358 33.7299C26.098 34.1499 24.544 34.3599 22.696 34.3599Z" fill="#1C1B1F"/>
        <path d="M56.7344 33.9999V31.1559L62.1344 30.2919V18.1959L57.5624 17.6199V14.4879H65.5904L66.2024 17.8719H66.4184C67.0664 16.6959 67.8404 15.7779 68.7404 15.1179C69.6404 14.4579 70.7984 14.1279 72.2144 14.1279C72.7664 14.1279 73.3534 14.1769 73.9784 14.2719C74.6024 14.3679 75.2144 14.5479 75.8144 14.8119L74.6264 18.9159C74.2664 18.7479 73.8284 18.6039 73.3124 18.4839C72.7964 18.3639 72.2504 18.3039 71.6744 18.3039C70.5944 18.3039 69.6764 18.5799 68.9204 19.1319C68.1644 19.6839 67.5884 20.4279 67.1924 21.3639C66.7964 22.2999 66.5984 23.3319 66.5984 24.4599V30.2919L71.9264 31.1559V33.9999H56.7344Z" fill="#1C1B1F"/>
        <path d="M88.0745 34.3599C85.8425 34.3599 83.9465 33.9699 82.3865 33.1899C80.8265 32.4099 79.6325 31.2639 78.8045 29.7519C77.9765 28.2399 77.5625 26.3919 77.5625 24.2079C77.5625 22.1439 77.9285 20.3559 78.6605 18.8439C79.3925 17.3319 80.4545 16.1679 81.8465 15.3519C83.2385 14.5359 84.8825 14.1279 86.7785 14.1279C88.6745 14.1279 90.1085 14.4939 91.3685 15.2259C92.6285 15.9579 93.5945 17.0029 94.2665 18.3579C94.9375 19.7139 95.2745 21.3399 95.2745 23.2359V25.3959H81.9545C82.0025 26.6439 82.3015 27.6579 82.8545 28.4379C83.4065 29.2179 84.1625 29.7879 85.1225 30.1479C86.0825 30.5079 87.1505 30.6879 88.3265 30.6879C89.3105 30.6879 90.3185 30.5619 91.3505 30.3099C92.3825 30.0579 93.4615 29.7039 94.5905 29.2479V32.9559C93.5105 33.4839 92.4185 33.8499 91.3145 34.0539C90.2105 34.2579 89.1305 34.3599 88.0745 34.3599ZM91.1345 22.2279C91.1345 21.2439 90.9485 20.4099 90.5765 19.7259C90.2045 19.0419 89.7065 18.5149 89.0825 18.1419C88.4585 17.7699 87.7145 17.5839 86.8505 17.5839C85.5545 17.5839 84.4745 17.9919 83.6105 18.8079C82.7465 19.6239 82.2305 20.7639 82.0625 22.2279H91.1345Z" fill="#1C1B1F"/>
        <path d="M99.1719 33.9999V14.4879H102.628L103.348 17.1159H103.6C103.983 16.4439 104.476 15.8859 105.076 15.4419C105.675 14.9979 106.359 14.6679 107.128 14.4519C107.896 14.2359 108.748 14.1279 109.684 14.1279C111.772 14.1279 113.404 14.7169 114.58 15.8919C115.756 17.0679 116.344 18.8199 116.344 21.1479V33.9999H111.844V22.1919C111.844 20.6799 111.544 19.5699 110.944 18.8619C110.344 18.1539 109.432 17.7999 108.208 17.7999C106.576 17.7999 105.412 18.3939 104.716 19.5819C104.02 20.7699 103.672 22.4079 103.672 24.4959V33.9999H99.1719Z" fill="#1C1B1F"/>
        <path d="M50.4931 16.0349L52.2921 11.3199H48.6921L38.8281 37.1679H42.4281L43.4861 34.3949C43.8031 34.4249 44.1231 34.4439 44.4471 34.4439C50.0801 34.4439 54.6471 29.8769 54.6471 24.2439C54.6471 20.8749 53.0101 17.8919 50.4921 16.0349H50.4931ZM44.8471 30.8309L49.1321 19.6029C50.3151 20.7959 51.0481 22.4349 51.0481 24.2439C51.0481 27.7489 48.3011 30.6239 44.8471 30.8309Z" fill="#1C1B1F"/>
        <path d="M43.8875 14.0439C38.2545 14.0439 33.6875 18.6109 33.6875 24.2439C33.6875 27.3269 35.0575 30.0869 37.2195 31.9569L44.0525 14.0499C43.9975 14.0499 43.9425 14.0439 43.8875 14.0439Z" fill="#1C1B1F"/>
    </g>
    <defs>
        <clipPath id="clip0_211_112">
            <rect width="100.346" height="25.848" fill="white" transform="translate(16 11.3199)"/>
        </clipPath>
    </defs>
</svg>
