<svg width="104" height="30" viewBox="0 0 104 30" fill="none" xmlns="http://www.w3.org/2000/svg">
<g clip-path="url(#clip0_91_5871)">
<path d="M8.52412 25.116C7.32412 25.116 6.16612 25.02 5.05012 24.828C3.93413 24.636 2.86012 24.336 1.82812 23.928V19.788C2.78812 20.22 3.86713 20.598 5.06812 20.922C6.26812 21.246 7.56412 21.408 8.95612 21.408C10.1321 21.408 11.0081 21.24 11.5841 20.904C12.1601 20.568 12.4481 20.064 12.4481 19.392C12.4481 18.912 12.2921 18.528 11.9801 18.24C11.6681 17.952 11.1761 17.658 10.5041 17.358C9.83212 17.058 8.94412 16.692 7.84012 16.26C6.68812 15.78 5.68012 15.3 4.81612 14.82C3.95212 14.34 3.27412 13.758 2.78212 13.074C2.29012 12.39 2.04412 11.496 2.04412 10.392C2.04412 9.12003 2.36812 8.07603 3.01612 7.26003C3.66412 6.44403 4.57612 5.84403 5.75212 5.46003C6.92812 5.07603 8.29612 4.88403 9.85612 4.88403C11.0561 4.88403 12.2381 4.99803 13.4021 5.22603C14.5661 5.45403 15.7241 5.80803 16.8761 6.28803L15.5081 9.74403C14.4521 9.33603 13.4621 9.03603 12.5381 8.84403C11.6141 8.65203 10.6841 8.55603 9.74812 8.55603C8.69212 8.55603 7.89412 8.68803 7.35412 8.95203C6.81412 9.21603 6.54412 9.64803 6.54412 10.248C6.54412 10.728 6.70612 11.124 7.03012 11.436C7.35412 11.748 7.84612 12.036 8.50612 12.3C9.16612 12.564 10.0001 12.888 11.0081 13.272C12.1601 13.728 13.1861 14.19 14.0861 14.658C14.9861 15.126 15.7001 15.72 16.2281 16.44C16.7561 17.16 17.0201 18.144 17.0201 19.392C17.0201 20.64 16.6961 21.756 16.0481 22.596C15.4001 23.437 14.4461 24.066 13.1861 24.486C11.9261 24.906 10.3721 25.116 8.52412 25.116Z" fill="white"/>
<path d="M42.5703 24.756V21.912L47.9703 21.048V8.95203L43.3983 8.37603V5.24403H51.4263L52.0383 8.62803H52.2543C52.9023 7.45203 53.6763 6.53403 54.5763 5.87403C55.4763 5.21403 56.6343 4.88403 58.0503 4.88403C58.6023 4.88403 59.1893 4.93303 59.8143 5.02803C60.4383 5.12403 61.0503 5.30403 61.6503 5.56803L60.4623 9.67203C60.1023 9.50403 59.6643 9.36003 59.1483 9.24003C58.6323 9.12003 58.0863 9.06003 57.5103 9.06003C56.4303 9.06003 55.5123 9.33603 54.7563 9.88803C54.0003 10.44 53.4243 11.184 53.0283 12.12C52.6323 13.056 52.4343 14.088 52.4343 15.216V21.048L57.7623 21.912V24.756H42.5703Z" fill="white"/>
<path d="M73.9026 25.116C71.6706 25.116 69.7746 24.726 68.2146 23.946C66.6546 23.166 65.4606 22.02 64.6326 20.508C63.8046 18.996 63.3906 17.148 63.3906 14.964C63.3906 12.9 63.7566 11.112 64.4886 9.60003C65.2206 8.08803 66.2826 6.92403 67.6746 6.10803C69.0666 5.29203 70.7106 4.88403 72.6066 4.88403C74.5026 4.88403 75.9366 5.25003 77.1966 5.98203C78.4566 6.71403 79.4226 7.75903 80.0946 9.11403C80.7656 10.47 81.1026 12.096 81.1026 13.992V16.152H67.7826C67.8306 17.4 68.1296 18.414 68.6826 19.194C69.2346 19.974 69.9906 20.544 70.9506 20.904C71.9106 21.264 72.9786 21.444 74.1546 21.444C75.1386 21.444 76.1466 21.318 77.1786 21.066C78.2106 20.814 79.2896 20.46 80.4186 20.004V23.712C79.3386 24.24 78.2466 24.606 77.1426 24.81C76.0386 25.014 74.9586 25.116 73.9026 25.116ZM76.9626 12.984C76.9626 12 76.7766 11.166 76.4046 10.482C76.0326 9.79803 75.5346 9.27103 74.9106 8.89803C74.2866 8.52603 73.5426 8.34003 72.6786 8.34003C71.3826 8.34003 70.3026 8.74803 69.4386 9.56403C68.5746 10.38 68.0586 11.52 67.8906 12.984H76.9626Z" fill="white"/>
<path d="M85 24.756V5.24403H88.456L89.176 7.87203H89.428C89.811 7.20003 90.304 6.64203 90.904 6.19803C91.503 5.75403 92.187 5.42403 92.956 5.20803C93.724 4.99203 94.576 4.88403 95.512 4.88403C97.6 4.88403 99.232 5.47303 100.408 6.64803C101.584 7.82403 102.172 9.57603 102.172 11.904V24.756H97.672V12.948C97.672 11.436 97.372 10.326 96.772 9.61803C96.172 8.91003 95.26 8.55603 94.036 8.55603C92.404 8.55603 91.24 9.15003 90.544 10.338C89.848 11.526 89.5 13.164 89.5 15.252V24.756H85Z" fill="white"/>
<path d="M36.3212 6.79105L38.1203 2.07605H34.5203L24.6562 27.924H28.2563L29.3142 25.151C29.6312 25.181 29.9513 25.2 30.2753 25.2C35.9083 25.2 40.4753 20.633 40.4753 15C40.4753 11.631 38.8383 8.64805 36.3203 6.79105H36.3212ZM30.6753 21.587L34.9603 10.359C36.1433 11.552 36.8763 13.191 36.8763 15C36.8763 18.505 34.1293 21.38 30.6753 21.587Z" fill="white"/>
<path d="M29.7156 4.80005C24.0826 4.80005 19.5156 9.36705 19.5156 15C19.5156 18.083 20.8856 20.843 23.0476 22.713L29.8806 4.80605C29.8256 4.80605 29.7706 4.80005 29.7156 4.80005Z" fill="white"/>
</g>
<defs>
<clipPath id="clip0_91_5871">
<rect width="100.346" height="25.848" fill="white" transform="translate(1.82812 2.07605)"/>
</clipPath>
</defs>
</svg>
