<svg width="64" height="64" viewBox="0 0 64 64" fill="none"
    xmlns="http://www.w3.org/2000/svg">
    <rect x="1" y="1" width="62" height="62" rx="31" fill="#1C1B1F"/>
    <rect x="1" y="1" width="62" height="62" rx="31" stroke="white" stroke-width="2"/>
    <path d="M43.1192 18.3025L46.0988 10.4932H40.1362L23.7988 53.3043H29.7614L31.5137 48.7115C32.0387 48.7612 32.5688 48.7926 33.1054 48.7926C42.4351 48.7926 49.9993 41.2285 49.9993 31.8987C49.9993 26.3188 47.288 21.3781 43.1175 18.3025H43.1192ZM33.7679 42.8086L40.865 24.212C42.8244 26.1879 44.0384 28.9026 44.0384 31.8987C44.0384 37.7039 39.4886 42.4657 33.7679 42.8086Z" fill="white"/>
    <path d="M32.1752 15.0049C22.8454 15.0049 15.2812 22.569 15.2812 31.8988C15.2812 37.0051 17.5503 41.5763 21.1312 44.6736L32.4484 15.0148C32.3573 15.0148 32.2663 15.0049 32.1752 15.0049Z" fill="white"/>
</svg>
